# xmcd
#
# Track frame offsets: 
#        150
#        9964
#        20809
#        30711
#        41070
#        54445
#        65810
#        77640
#        88245
#        98746
#        110432
#        123953
#        135214
#        146349
#        154807
#        164579
#        175388
#        187398
#        200432
#        210321
#        219918
#        228258
#        240447
#        250052
#        259677
#        273791
#
# Disc length: 4526 seconds
#
# Revision: 1
# Processed by: cddbd v1.5.2PL0 Copyright (c) Steve Scherf et al.
# Submitted via: ExactAudioCopy v0.99pb4
#
DISCID=6411ac1a
DTITLE=Les Paul And Mary Ford - I'm Movin' On
DYEAR=2007
DGENRE=Country
TTITLE0=Whither Thou Goest
TTITLE1=Mandolino
TTITLE2=Mr. Sandman
TTITLE3=Song In Blue
TTITLE4=Someday Sweetheart
TTITLE5=No Letter Today
TTITLE6=On The Sunny Side Of The Street
TTITLE7=Twelfth Street Rag
TTITLE8=Just One Of Those Things
TTITLE9=Lies
TTITLE10=Nuevo Laredo
TTITLE11=The Best Things In Life Are Free
TTITLE12=Moritat
TTITLE13=I'm Movin' On
TTITLE14=Some Of These Days
TTITLE15=Farewell (For Just a While)
TTITLE16=Hummingbird
TTITLE17=Amukiriki (The Lord Willing)
TTITLE18=Magic Melody
TTITLE19=Alabamy Bound
TTITLE20=Say The Words I Love To Hear
TTITLE21=Cimarron (Roll On)
TTITLE22=San Antonio Rose
TTITLE23=Send Me Some Money
TTITLE24=Cinco Robles (Five Oaks)
TTITLE25=The Les Paul Show Episode 1 (A.B.C.D)
EXTD=
EXTT0=
EXTT1=
EXTT2=
EXTT3=
EXTT4=
EXTT5=
EXTT6=
EXTT7=
EXTT8=
EXTT9=
EXTT10=
EXTT11=
EXTT12=
EXTT13=
EXTT14=
EXTT15=
EXTT16=
EXTT17=
EXTT18=
EXTT19=
EXTT20=
EXTT21=
EXTT22=
EXTT23=
EXTT24=
EXTT25=
PLAYORDER=
